<svg xmlns="http://www.w3.org/2000/svg" width="32" height="32" viewBox="0 0 32 32"><path fill="#4099ff" d="M32 6.08c-1.18.52-2.44.87-3.77 1.03 1.35-.8 2.4-2.1 2.9-3.62-1.28.75-2.7 1.3-4.18 1.6-1.2-1.3-2.9-2.08-4.8-2.08-3.62 0-6.56 2.94-6.56 6.56 0 .52.05 1.02.16 1.5-5.46-.27-10.3-2.9-13.53-6.86-.57.97-.9 2.1-.9 3.3 0 2.28 1.17 4.3 2.93 5.47-1.08-.04-2.1-.33-2.97-.83-.02.03-.02.06-.02.1 0 3.17 2.27 5.82 5.27 6.42-.55.15-1.13.23-1.73.23-.42 0-.83-.05-1.23-.12.82 2.6 3.25 4.5 6.12 4.56-2.25 1.76-5.08 2.8-8.16 2.8-.53 0-1.05-.03-1.56-.1C2.9 27.93 6.35 29 10.06 29c12.08 0 18.68-10 18.68-18.68 0-.28 0-.56-.02-.85 1.3-.92 2.4-2.08 3.28-3.4z"/></svg>