<svg xmlns="http://www.w3.org/2000/svg" width="64" height="64" viewBox="0 0 64 64"><path fill="var(--color-bg)" d="M0 0h64v64H0z"/><path fill="var(--color-text)" d="M6 7h30v6H6zM6 17h9v3H6zM19 17h8v3h-8zM31 17h13v3H31zM6 24h10v3H6zM34 24h9v3h-9zM20 24h10v3H20z"/><path fill="var(--color-accent)" d="M20 28h10v1H20z"/><path fill="var(--color-dark)" d="M0 32h64v27H0z"/><path class="token selector" d="M6 37h12v3H6z"/><path class="token punctuation" d="M22 37h3v3h-3zM26 44h3v3h-3zM45 44h3v3h-3zM6 51h3v3H6z"/><path class="token property" d="M14 44h12v3H14z"/><path fill="var(--color-light)" d="M33 44h12v3H33z"/></svg>