<svg xmlns="http://www.w3.org/2000/svg" width="64" height="64" viewBox="0 0 64 64"><path fill="Canvas" d="M0 0h64v64H0z"/><path fill="CanvasText" d="M6 7h30v6H6zM6 17h9v3H6zM19 17h8v3h-8zM31 17h13v3H31zM48 17h10v3H48zM20 24h9v3h-9z"/><path fill="LinkText" d="M6 24h10v3H6zM6 28h10v1H6z"/><path fill="var(--color-dark,transparent)" stroke="CanvasText" stroke-width=".5" stroke-dasharray="2" d="M6 32h52v27H6z"/><path class="token selector" d="M11 37h12v3H11z"/><path class="token punctuation" d="M27 37h3v3h-3zM31 44h3v3h-3zM50 44h3v3h-3zM11 51h3v3h-3z"/><path class="token property" d="M19 44h12v3H19z"/><path fill="var(--color-light,CanvasText)" d="M38 44h12v3H38z"/></svg>